<svg width="60" height="65" viewBox="0 0 60 65" fill="none" xmlns="http://www.w3.org/2000/svg">
<path d="M0 4.88439C0 2.18682 2.12143 0 4.73833 0H29.2631C30.5197 0 31.7249 0.514605 32.6136 1.43061L58.6122 28.2307C60.4626 30.1382 60.4626 33.2308 58.6122 35.1383L31.0313 63.5694C30.1427 64.4854 28.9375 65 27.6808 65H4.73832C2.12142 65 0 62.8132 0 60.1156V56.4487C0 55.1533 0.499213 53.9109 1.38782 52.9949L18.5637 35.2896C20.4141 33.3821 20.4141 30.2895 18.5637 28.382L1.38782 10.6767C0.499215 9.76067 0 8.51831 0 7.22289V4.88439Z" fill="#5B93BF"/>
</svg>
